<svg width="221" height="42" fill="none" xmlns="http://www.w3.org/2000/svg"><path d="M68.428 25a.324.324 0 0 1-.238-.098.324.324 0 0 1-.098-.238V15.55c0-.103.028-.187.084-.252a.341.341 0 0 1 .252-.098h4.06c1.092 0 1.904.243 2.436.728.541.476.812 1.13.812 1.96 0 .485-.121.9-.364 1.246a2.1 2.1 0 0 1-.826.728c.392.177.719.467.98.868.27.401.406.859.406 1.372 0 .868-.294 1.568-.882 2.1-.579.532-1.395.798-2.45.798h-4.172Zm3.808-5.782c.485 0 .854-.117 1.106-.35.252-.233.378-.546.378-.938 0-.401-.126-.71-.378-.924-.252-.224-.62-.336-1.106-.336h-2.198v2.548h2.198Zm.14 4.298c.485 0 .863-.13 1.134-.392.27-.27.406-.611.406-1.022 0-.42-.135-.76-.406-1.022-.27-.27-.649-.406-1.134-.406h-2.338v2.842h2.338ZM78.026 25a.324.324 0 0 1-.238-.098.324.324 0 0 1-.098-.238V15.55c0-.103.028-.187.084-.252a.341.341 0 0 1 .252-.098h6.16c.102 0 .186.033.252.098.065.065.098.15.098.252v.924a.341.341 0 0 1-.098.252.374.374 0 0 1-.252.084H79.58v2.478h4.298c.102 0 .186.033.252.098a.296.296 0 0 1 .098.238v.868a.341.341 0 0 1-.098.252.374.374 0 0 1-.252.084H79.58v2.562h4.718c.102 0 .186.033.252.098.065.065.098.15.098.252v.924a.341.341 0 0 1-.098.252.374.374 0 0 1-.252.084h-6.272Zm11.775.14c-.831 0-1.545-.126-2.142-.378-.598-.252-1.05-.583-1.358-.994a2.332 2.332 0 0 1-.49-1.33.285.285 0 0 1 .294-.294h1.246c.112 0 .196.023.252.07a.534.534 0 0 1 .182.196c.093.317.308.583.644.798.336.215.793.322 1.372.322.662 0 1.162-.107 1.498-.322.336-.224.504-.532.504-.924a.848.848 0 0 0-.266-.644c-.168-.168-.425-.313-.77-.434-.336-.121-.84-.27-1.512-.448-1.102-.261-1.909-.607-2.422-1.036-.504-.439-.756-1.06-.756-1.862 0-.541.144-1.022.434-1.442.298-.42.723-.751 1.274-.994.56-.243 1.208-.364 1.946-.364.765 0 1.428.135 1.988.406.56.27.984.611 1.274 1.022.298.401.457.803.476 1.204a.285.285 0 0 1-.294.294h-1.302a.406.406 0 0 1-.406-.266c-.056-.299-.243-.546-.56-.742-.318-.205-.71-.308-1.176-.308-.523 0-.934.098-1.232.294-.299.196-.448.48-.448.854 0 .261.074.476.224.644.149.168.382.317.7.448.326.13.793.275 1.4.434.821.187 1.474.397 1.96.63.494.233.858.527 1.092.882.233.355.35.807.35 1.358 0 .597-.168 1.12-.504 1.568-.327.439-.794.775-1.4 1.008-.598.233-1.288.35-2.072.35Zm7.963-.14a.324.324 0 0 1-.238-.098.324.324 0 0 1-.098-.238v-7.742h-2.59a.324.324 0 0 1-.238-.098.324.324 0 0 1-.098-.238V15.55c0-.103.028-.187.084-.252a.341.341 0 0 1 .252-.098h7.14c.102 0 .186.033.252.098.065.065.098.15.098.252v1.036a.325.325 0 0 1-.098.238.343.343 0 0 1-.252.098h-2.576v7.742a.324.324 0 0 1-.098.238.341.341 0 0 1-.252.098h-1.288Zm9.178 0a.323.323 0 0 1-.238-.098.321.321 0 0 1-.098-.238V15.55c0-.103.028-.187.084-.252a.34.34 0 0 1 .252-.098h4.06c1.092 0 1.904.243 2.436.728.541.476.812 1.13.812 1.96 0 .485-.122.9-.364 1.246-.234.336-.509.579-.826.728.392.177.718.467.98.868.27.401.406.859.406 1.372 0 .868-.294 1.568-.882 2.1-.579.532-1.396.798-2.45.798h-4.172Zm3.808-5.782c.485 0 .854-.117 1.106-.35.252-.233.378-.546.378-.938 0-.401-.126-.71-.378-.924-.252-.224-.621-.336-1.106-.336h-2.198v2.548h2.198Zm.14 4.298c.485 0 .863-.13 1.134-.392.27-.27.406-.611.406-1.022 0-.42-.136-.76-.406-1.022-.271-.27-.649-.406-1.134-.406h-2.338v2.842h2.338Zm9.079 1.624c-1.269 0-2.258-.322-2.968-.966-.709-.644-1.082-1.6-1.12-2.87-.009-.27-.014-.667-.014-1.19 0-.532.005-.933.014-1.204.038-1.241.42-2.193 1.148-2.856.728-.663 1.708-.994 2.94-.994s2.212.331 2.94.994c.738.663 1.125 1.615 1.162 2.856.019.541.028.943.028 1.204 0 .252-.009.649-.028 1.19-.046 1.27-.424 2.226-1.134 2.87-.709.644-1.698.966-2.968.966Zm0-1.61c.626 0 1.125-.187 1.498-.56.374-.383.574-.961.602-1.736.019-.56.028-.938.028-1.134 0-.215-.009-.593-.028-1.134-.028-.775-.228-1.349-.602-1.722-.373-.383-.872-.574-1.498-.574-.616 0-1.11.191-1.484.574-.373.373-.574.947-.602 1.722-.009.27-.014.649-.014 1.134 0 .476.005.854.014 1.134.028.775.224 1.353.588 1.736.374.373.873.56 1.498.56Zm6.305 1.47a.323.323 0 0 1-.238-.098.321.321 0 0 1-.098-.238V15.55c0-.103.028-.187.084-.252a.34.34 0 0 1 .252-.098h1.078c.112 0 .196.023.252.07a.608.608 0 0 1 .154.154l4.032 6.272V15.55c0-.103.028-.187.084-.252a.34.34 0 0 1 .252-.098h1.176c.102 0 .186.033.252.098.065.065.098.15.098.252v9.1a.342.342 0 0 1-.098.252.326.326 0 0 1-.238.098h-1.092c-.159 0-.294-.075-.406-.224l-4.018-6.132v6.02a.342.342 0 0 1-.098.252.376.376 0 0 1-.252.084h-1.176Zm13.468.14c-1.26 0-2.24-.322-2.94-.966-.7-.644-1.05-1.62-1.05-2.926V15.55c0-.103.028-.187.084-.252a.34.34 0 0 1 .252-.098h1.274c.103 0 .182.033.238.098.065.065.098.15.098.252v5.698c0 .747.177 1.311.532 1.694.355.373.859.56 1.512.56s1.153-.187 1.498-.56c.355-.383.532-.947.532-1.694V15.55c0-.103.033-.187.098-.252a.34.34 0 0 1 .252-.098h1.26c.103 0 .182.033.238.098.065.065.098.15.098.252v5.698c0 1.307-.35 2.282-1.05 2.926-.691.644-1.666.966-2.926.966Zm9.477 0c-.831 0-1.545-.126-2.142-.378-.598-.252-1.05-.583-1.358-.994a2.327 2.327 0 0 1-.49-1.33.285.285 0 0 1 .294-.294h1.246c.112 0 .196.023.252.07a.537.537 0 0 1 .182.196c.093.317.308.583.644.798.336.215.793.322 1.372.322.662 0 1.162-.107 1.498-.322.336-.224.504-.532.504-.924a.85.85 0 0 0-.266-.644c-.168-.168-.425-.313-.77-.434-.336-.121-.84-.27-1.512-.448-1.102-.261-1.909-.607-2.422-1.036-.504-.439-.756-1.06-.756-1.862 0-.541.144-1.022.434-1.442.298-.42.723-.751 1.274-.994.56-.243 1.208-.364 1.946-.364.765 0 1.428.135 1.988.406.56.27.984.611 1.274 1.022.298.401.457.803.476 1.204a.285.285 0 0 1-.294.294h-1.302a.405.405 0 0 1-.406-.266c-.056-.299-.243-.546-.56-.742-.318-.205-.71-.308-1.176-.308-.523 0-.934.098-1.232.294-.299.196-.448.48-.448.854 0 .261.074.476.224.644.149.168.382.317.7.448.326.13.793.275 1.4.434.821.187 1.474.397 1.96.63.494.233.858.527 1.092.882.233.355.35.807.35 1.358 0 .597-.168 1.12-.504 1.568-.327.439-.794.775-1.4 1.008-.598.233-1.288.35-2.072.35Z" fill="#fff"/><path d="m211 0-10 5h16l-6-5ZM10 0l10 5H4l6-5Z" fill="#B86326"/><path d="M10 0h201l-5 29.936C210.988 33.947 208.151 42 201.751 42H19.249c-6.4 0-9.237-8.053-4.249-12.064L10 0Z" fill="url(#a)"/><defs><linearGradient id="a" x1="110.5" y1="0" x2="110.5" y2="42" gradientUnits="userSpaceOnUse"><stop stop-color="#FF8B36"/><stop offset="1" stop-color="#FF630B"/></linearGradient></defs></svg>