<svg width="17" height="17" fill="none" xmlns="http://www.w3.org/2000/svg"><g clip-path="url(#a)"><path d="M16.008 1.487a.856.856 0 0 0-.495-.495c-2.976-.78-6.021.141-8.075 2.55l-.78.92-1.912-.425a1.86 1.86 0 0 0-2.338.921L.85 7.721a.531.531 0 0 0 0 .637c.07.213.283.354.496.425l2.196.496c-.213.567-.284 1.133-.425 1.7 0 .213.07.425.212.567l2.196 2.196a.643.643 0 0 0 .496.212h.07c.638-.07 1.205-.142 1.772-.354l.425 2.125c.07.213.212.425.425.496.07.07.212.07.283.07.142 0 .212 0 .354-.07l2.763-1.559c.779-.425 1.204-1.416.991-2.337l-.496-1.983.85-.78c2.338-1.983 3.33-5.17 2.55-8.075ZM5.171 6.233c-.425.567-.85 1.134-1.133 1.7L2.55 7.58l1.063-1.912c.141-.284.425-.355.779-.284l1.204.284-.425.566Zm6.162 7.154L9.421 14.45l-.283-1.417c.637-.283 1.204-.708 1.7-1.133l.495-.496.284 1.204c.141.354-.071.709-.284.78Zm.496-7.154a1.09 1.09 0 0 1-1.062-1.062 1.09 1.09 0 0 1 1.062-1.063 1.09 1.09 0 0 1 1.063 1.063c0 .566-.425 1.062-1.063 1.062Z" fill="#0079F0"/></g><defs><clipPath id="a"><path fill="#fff" d="M0 0h17v17H0z"/></clipPath></defs></svg>