<svg width="31" height="31" fill="none" xmlns="http://www.w3.org/2000/svg"><path fill-rule="evenodd" clip-rule="evenodd" d="M5.099 6.458c0-1.07.867-1.937 1.937-1.937h16.792c1.07 0 1.937.867 1.937 1.937v5.167c0 1.07-.867 1.938-1.937 1.938H7.036A1.937 1.937 0 0 1 5.1 11.624V6.458ZM7.75 9.042a1.292 1.292 0 1 1 2.583 0 1.292 1.292 0 0 1-2.583 0Zm5.167-1.292a1.292 1.292 0 1 0 0 2.583 1.292 1.292 0 0 0 0-2.583Zm-7.818 9.042c0-1.07.867-1.938 1.937-1.938h16.792c1.07 0 1.937.868 1.937 1.938v5.166c0 1.07-.867 1.938-1.937 1.938h-7.36v2.26h8.074a.969.969 0 1 1 0 1.938H6.458a.969.969 0 0 1 0-1.938h8.073v-2.26H7.036A1.937 1.937 0 0 1 5.1 21.958v-5.166Zm2.651 2.583a1.292 1.292 0 1 1 2.583 0 1.292 1.292 0 0 1-2.583 0Zm3.875 0a1.292 1.292 0 1 1 2.583 0 1.292 1.292 0 0 1-2.583 0Z" fill="#0079F0"/></svg>