<svg width="31" height="31" fill="none" xmlns="http://www.w3.org/2000/svg"><path d="M11.302 12.917a4.198 4.198 0 1 1 8.396 0 4.198 4.198 0 0 1-8.396 0Z" fill="#0079F0"/><path fill-rule="evenodd" clip-rule="evenodd" d="M4.874 11.467a10.382 10.382 0 0 1 10.347-9.53h.558c5.403 0 9.903 4.145 10.347 9.53a11.23 11.23 0 0 1-2.498 8.03l-6.191 7.571a2.502 2.502 0 0 1-3.874 0l-6.19-7.571a11.228 11.228 0 0 1-2.499-8.03ZM15.5 6.78a6.135 6.135 0 1 0 0 12.271 6.135 6.135 0 0 0 0-12.27Z" fill="#0079F0"/></svg>