<svg width="45" height="9" fill="none" xmlns="http://www.w3.org/2000/svg"><path fill-rule="evenodd" clip-rule="evenodd" d="M41.563.656c1.633 0 2.532.741 2.532 2.141.081 1.071-.654 1.977-1.633 2.142l2.204 3.047h-1.714l-1.879-2.965h-.163v2.965h-1.388V.656h2.041Zm-.653 3.377h.408c.899 0 1.307-.412 1.307-1.153 0-.66-.408-1.071-1.307-1.071h-.408v2.224Zm-6.206 3.953h3.92V6.751h-2.532V4.774h2.45V3.539h-2.45V1.89h2.532V.656h-3.92v7.33ZM30.62 5.598 28.742.656h-1.47l3.022 7.495h.735L34.05.656h-1.47l-1.96 4.942ZM14.043 4.362c0 2.06 1.634 3.789 3.675 3.789.653 0 1.225-.165 1.797-.412V6.092c-.409.494-.98.823-1.634.823-1.306 0-2.368-.988-2.368-2.306v-.165c-.081-1.317.98-2.47 2.287-2.553.653 0 1.306.33 1.715.824V1.068C19.025.738 18.37.656 17.8.656 15.677.49 14.043 2.22 14.043 4.362Zm-2.531-.906c-.817-.33-1.062-.494-1.062-.906.082-.494.49-.906.98-.823.409 0 .817.247 1.143.576l.735-.988C12.737.82 12.002.49 11.267.49c-1.143-.082-2.123.824-2.205 1.977v.082c0 .989.408 1.565 1.715 1.977.327.082.653.247.98.412a.867.867 0 0 1 .408.741c0 .577-.49 1.07-.98 1.07h-.082a1.613 1.613 0 0 1-1.47-.988l-.898.906c.49.906 1.47 1.4 2.45 1.4 1.307.083 2.368-.905 2.45-2.223v-.247c-.082-.989-.49-1.483-2.123-2.142Zm-4.737 4.53h1.389V.656H6.775v7.33ZM.325.656h2.45c1.959.082 3.51 1.73 3.429 3.706 0 1.07-.49 2.06-1.307 2.8-.735.577-1.633.907-2.531.824H.324V.656ZM2.12 6.75c.653.082 1.388-.165 1.878-.577.49-.494.735-1.153.735-1.894 0-.66-.245-1.318-.735-1.812-.49-.412-1.225-.66-1.878-.577h-.409v4.86h.409Z" fill="#E6F5FF"/><path fill-rule="evenodd" clip-rule="evenodd" d="M23.68.486a3.763 3.763 0 0 0-3.757 3.789c0 2.059 1.633 3.788 3.757 3.87 2.123.083 3.756-1.647 3.838-3.788C27.436 2.215 25.803.486 23.68.486Z" fill="#FD6020"/></svg>