<svg width="130" height="40" fill="none" xmlns="http://www.w3.org/2000/svg"><g clip-path="url(#a)"><path fill-rule="evenodd" clip-rule="evenodd" d="m23.754 18.541 1.4-4.953h6.499c3.422 0 5.51-1.562 6.456-4.9l.526-1.827C39.841 2.623 37.875 0 33.543 0H5.25L0 18.541h23.754Zm9.763-13.535-1.103 3.999h-5.961l1.132-3.986 5.932-.013Zm7.532 13.535 1.74-3.098h8.05v3.098h5.302V0H45.746l-10.84 18.541h6.143ZM48.64 5.032h2.199v5.907h-5.53l3.331-5.907Zm29.557 1.829-.482 1.668h-.01c-.69 2.458-1.999 3.94-3.984 4.56l1.659 5.452h-5.66l-1.544-5.112h-3.423l-1.448 5.112h-5.51L63.042 0h10.052c4.331 0 6.301 2.57 5.103 6.86ZM73.07 5.006h-5.932l-1.135 3.999h5.966l1.1-4Zm9.815 13.535L88.133 0h-5.51l-5.25 18.541h5.513ZM42.943 28.603l6.216-7.413h7.138L51.05 39.731h-5.514l3.028-10.602-5.126 6.072h-3.544l-1.93-5.732-2.899 10.262H11.311l5.25-18.54h23.833l2.549 7.412Zm20.712-7.413-10.84 18.541h6.143l1.74-3.1h8.05v3.1h5.3v-18.54H63.654Zm-.426 10.94 3.32-5.908h2.198v5.907H63.23Zm30.924-10.94-1.496 5.298h-5.174l-3.749 13.243h-5.51l3.748-13.243h-6.034l1.495-5.298h16.72Zm5.826 5.298h8.346l1.525-5.298h-8.899c-3.423 0-5.511 1.562-6.456 4.9l-1.944 6.78c-1.232 4.345.762 6.861 5.093 6.861h6.929l1.496-5.298h-8.346l2.256-7.945Zm22.219 1.323 1.878-6.62h5.51l-5.25 18.54h-5.511l1.875-6.621h-6.3l-1.875 6.621h-5.511l5.25-18.54h5.511l-1.875 6.62h6.298Z" fill="#F8FF13"/></g><defs><clipPath id="a"><path fill="#fff" d="M0 0h130v40H0z"/></clipPath></defs></svg>