<svg width="35" height="24" fill="none" xmlns="http://www.w3.org/2000/svg"><rect x="1.109" y="1.318" width="32.547" height="21.787" rx="3.5" fill="#006FCF" stroke="#F3F3F3"/><path fill-rule="evenodd" clip-rule="evenodd" d="M7.471 17.279v-4.691h5.393l.578.694.598-.694h19.575v4.367s-.512.319-1.104.324H21.67l-.651-.74v.74h-2.138v-1.263s-.292.176-.924.176h-.727v1.087h-3.237l-.577-.71-.587.71H7.471ZM1.188 9.052 2.4 6.44h2.1l.689 1.462V6.441h2.608l.41 1.057.398-1.057h11.709v.531s.615-.531 1.627-.531l3.8.012.676 1.443V6.441H28.6l.6.829v-.83h2.203v4.692H29.2l-.575-.832v.832h-3.207l-.323-.74h-.862l-.317.74H21.74c-.87 0-1.427-.521-1.427-.521v.52h-3.28l-.65-.739v.74H4.189l-.323-.74h-.86l-.32.74H1.189v-2.08Zm.006 1.48 1.637-3.513h1.24l1.635 3.512H4.617l-.3-.703H2.56l-.301.703H1.194Zm2.777-1.467-.535-1.229-.537 1.23h1.072Zm1.848 1.466V7.018l1.514.006.88 2.264.86-2.27h1.502v3.513h-.951V7.943L8.615 10.53h-.834l-1.01-2.588v2.588h-.952Zm5.407 0V7.018h3.104v.786h-2.143v.6h2.093v.74h-2.093v.624h2.143v.763h-3.104Zm3.655 0V7.02h2.116c.702 0 1.33.4 1.33 1.14 0 .631-.53 1.038-1.043 1.078l1.251 1.294h-1.162l-1.14-1.247h-.401v1.247h-.951Zm2.038-2.726h-1.087v.739h1.101c.191 0 .437-.136.437-.37 0-.181-.19-.37-.45-.37Zm2.768 2.726h-.971V7.018h.971v3.513Zm2.303 0h-.21c-1.014 0-1.63-.738-1.63-1.742 0-1.029.609-1.77 1.89-1.77h1.051v.831h-1.09c-.52 0-.887.375-.887.948 0 .68.42.966 1.026.966h.25l-.4.767Zm.434 0L24.06 7.02h1.24l1.636 3.512h-1.09l-.3-.703h-1.755l-.302.703h-1.066ZM25.2 9.065l-.535-1.229-.537 1.23H25.2Zm1.846 1.466V7.018h1.21L29.8 9.225V7.018h.951v3.513h-1.17l-1.583-2.265v2.265h-.951ZM8.122 16.678v-3.513h3.104v.786H9.083v.6h2.093v.74H9.083v.624h2.143v.763H8.122Zm15.21 0v-3.513h3.104v.786h-2.143v.6h2.083v.74h-2.083v.624h2.143v.763h-3.104Zm-11.986 0 1.512-1.735-1.548-1.778h1.199l.921 1.1.925-1.1h1.152l-1.527 1.756 1.514 1.757h-1.199l-.894-1.082-.873 1.082h-1.182Zm4.26 0v-3.512h2.102c.862 0 1.366.513 1.366 1.181 0 .807-.642 1.222-1.49 1.222h-1.001v1.11h-.976Zm2.031-2.718h-1.054v.809h1.051c.278 0 .473-.17.473-.405 0-.249-.196-.404-.47-.404Zm1.85 2.718v-3.513h2.117c.701 0 1.33.4 1.33 1.14 0 .632-.53 1.039-1.044 1.079l1.252 1.294h-1.163l-1.14-1.248h-.4v1.248h-.952Zm2.039-2.727h-1.088v.74h1.102c.19 0 .436-.137.436-.37 0-.182-.19-.37-.45-.37Zm5.35 2.727v-.763h1.904c.282 0 .404-.14.404-.294 0-.148-.122-.298-.404-.298h-.86c-.748 0-1.164-.42-1.164-1.052 0-.563.381-1.106 1.492-1.106h1.853l-.4.79h-1.603c-.306 0-.4.149-.4.29 0 .146.116.307.35.307h.901c.834 0 1.195.436 1.195 1.008 0 .614-.403 1.118-1.24 1.118h-2.028Zm3.352 0v-.763h1.904c.282 0 .404-.14.404-.294 0-.148-.122-.298-.404-.298h-.86c-.748 0-1.164-.42-1.164-1.052 0-.563.38-1.106 1.492-1.106h1.853l-.401.79H31.45c-.306 0-.4.149-.4.29 0 .146.116.307.35.307h.901c.834 0 1.195.436 1.195 1.008 0 .614-.403 1.118-1.24 1.118h-2.028Z" fill="#fff"/></svg>