<svg width="20" height="20" fill="none" xmlns="http://www.w3.org/2000/svg"><path d="M10.398 3.71a.2.2 0 0 0-.168.198v5.273c0 .11.09.2.2.2h7.061a.2.2 0 0 0 .2-.2V2.738a.2.2 0 0 0-.233-.197l-7.06 1.17Zm-.168 12.401a.2.2 0 0 0 .168.198l7.06 1.15a.2.2 0 0 0 .233-.198v-6.44a.2.2 0 0 0-.2-.2h-7.06a.2.2 0 0 0-.2.2v5.29ZM2.345 9.18c0 .11.09.2.2.2h5.907a.2.2 0 0 0 .2-.2v-5a.2.2 0 0 0-.233-.197l-5.906.979a.2.2 0 0 0-.168.197V9.18Zm0 5.702a.2.2 0 0 0 .168.197l5.907.962a.2.2 0 0 0 .232-.197v-5.022a.2.2 0 0 0-.2-.2H2.545a.2.2 0 0 0-.2.2v4.06Z" fill="#fff"/></svg>