<svg width="35" height="27" fill="none" xmlns="http://www.w3.org/2000/svg"><path fill-rule="evenodd" clip-rule="evenodd" d="M9.957 23.624v2.775h-.619v-.337c-.196.25-.494.406-.899.406-.798 0-1.424-.609-1.424-1.457 0-.847.626-1.457 1.424-1.457.405 0 .703.157.9.407v-.337h.618Zm-1.44.499c-.537 0-.865.4-.865.888s.328.889.864.889c.512 0 .858-.384.858-.889s-.346-.888-.858-.888Zm22.358.888c0-.488.328-.888.864-.888.512 0 .857.383.857.888s-.345.889-.857.889c-.536 0-.864-.401-.864-.889Zm2.306-2.501v3.889h-.62v-.337c-.197.25-.494.406-.9.406-.798 0-1.424-.609-1.424-1.457 0-.847.626-1.457 1.425-1.457.405 0 .703.157.899.407V22.51h.62Zm-15.54 1.584c.399 0 .655.244.72.673h-1.477c.066-.4.316-.673.757-.673Zm-1.406.917c0-.865.584-1.457 1.418-1.457.798 0 1.346.592 1.352 1.457 0 .081-.006.157-.012.232h-2.114c.089.5.452.68.851.68.286 0 .59-.105.828-.29l.304.447c-.346.284-.738.388-1.167.388-.852 0-1.46-.574-1.46-1.457Zm8.892 0c0-.488.328-.888.864-.888.512 0 .858.383.858.888s-.346.889-.858.889c-.536 0-.864-.401-.864-.889Zm2.305-1.387v2.775h-.619v-.337c-.197.25-.494.406-.899.406-.798 0-1.424-.609-1.424-1.457 0-.847.626-1.457 1.424-1.457.405 0 .702.157.9.407v-.337h.618Zm-5.8 1.387c0 .842.6 1.457 1.518 1.457.43 0 .715-.093 1.024-.33l-.297-.488c-.232.163-.476.25-.745.25-.494-.006-.858-.354-.858-.889 0-.534.364-.882.858-.888.269 0 .513.087.745.25l.297-.488c-.31-.238-.595-.33-1.024-.33-.917 0-1.518.614-1.518 1.456Zm7.23-1.05a.845.845 0 0 1 .75-.407c.126 0 .304.023.441.076l-.19.569a1.028 1.028 0 0 0-.388-.07c-.405 0-.607.255-.607.714V26.4h-.62v-2.775h.614v.337Zm-15.843-.116c-.298-.192-.709-.29-1.161-.29-.721 0-1.186.336-1.186.887 0 .453.346.732.983.82l.292.04c.34.046.5.133.5.29 0 .215-.226.337-.65.337-.428 0-.738-.134-.946-.29l-.292.47c.34.243.768.36 1.233.36.822 0 1.298-.378 1.298-.906 0-.488-.375-.743-.994-.83l-.292-.041c-.268-.035-.483-.087-.483-.273 0-.203.203-.325.542-.325.364 0 .715.134.888.238l.268-.488Zm7.237.116a.843.843 0 0 1 .75-.407c.125 0 .304.023.44.076l-.19.569a1.029 1.029 0 0 0-.387-.07c-.405 0-.608.255-.608.714V26.4h-.619v-2.775h.614v.337Zm-4.533-.337h-1.012v-.842h-.626v.842h-.578v.551h.578v1.266c0 .644.256 1.027.988 1.027.269 0 .579-.08.775-.214l-.179-.517a1.168 1.168 0 0 1-.548.157c-.31 0-.41-.186-.41-.465v-1.254h1.012v-.551Zm-9.255 1.033V26.4h-.626v-1.545c0-.47-.203-.731-.625-.731-.411 0-.697.256-.697.737V26.4h-.626v-1.545c0-.47-.208-.731-.619-.731-.423 0-.697.256-.697.737V26.4h-.625v-2.775h.62v.342c.232-.325.529-.412.833-.412.435 0 .744.186.94.494.263-.39.638-.5 1.001-.494.692.006 1.12.447 1.12 1.103Z" fill="#fff"/><path d="M22.195 18.91h-9.381V2.475h9.381V18.91Z" fill="#FF5F00"/><path d="M13.409 10.693c0-3.333 1.601-6.303 4.095-8.216A10.852 10.852 0 0 0 10.878.242C4.956.242.156 4.922.156 10.693c0 5.772 4.8 10.451 10.722 10.451 2.5 0 4.802-.835 6.626-2.234-2.494-1.914-4.095-4.883-4.095-8.217Z" fill="#EB001B"/><path d="M34.852 10.693c0 5.772-4.8 10.451-10.721 10.451-2.502 0-4.803-.835-6.627-2.234 2.494-1.914 4.095-4.883 4.095-8.217 0-3.333-1.6-6.303-4.095-8.216A10.856 10.856 0 0 1 24.13.242c5.921 0 10.721 4.68 10.721 10.451Z" fill="#F79E1B"/></svg>