<svg width="31" height="21" fill="none" xmlns="http://www.w3.org/2000/svg"><path d="M6.243.628h7.673c1.07 0 1.737.882 1.487 1.967l-3.572 15.491c-.252 1.082-1.325 1.964-2.396 1.964H1.762c-1.07 0-1.737-.882-1.487-1.964L3.85 2.596C4.099 1.51 5.17.627 6.243.627Z" fill="#E21836"/><path d="M13.277.627H22.1c1.07 0 .588.882.336 1.967l-3.572 15.49c-.25 1.082-.172 1.965-1.246 1.965H8.796c-1.073 0-1.738-.883-1.485-1.964l3.571-15.49c.254-1.086 1.323-1.968 2.395-1.968Z" fill="#00447C"/><path d="M21.75.627h7.674c1.072 0 1.738.882 1.486 1.967l-3.571 15.49c-.252 1.082-1.325 1.965-2.398 1.965h-7.67c-1.072 0-1.738-.883-1.487-1.964l3.573-15.49c.25-1.086 1.32-1.968 2.394-1.968Z" fill="#007B84"/><path d="M8.246 5.591c-.789.008-1.022 0-1.096-.017-.029.137-.561 2.618-.563 2.62-.114.502-.198.86-.481 1.09a.852.852 0 0 1-.566.2c-.35 0-.554-.176-.588-.509l-.007-.114.107-.676s.558-2.26.659-2.56a.218.218 0 0 0 .008-.034c-1.088.01-1.281 0-1.294-.017a3.118 3.118 0 0 0-.034.164L3.82 8.286l-.05.216-.094.707c0 .21.04.38.122.525.26.46 1.002.528 1.421.528.54 0 1.048-.116 1.39-.328.595-.355.75-.91.89-1.402l.064-.253s.575-2.348.673-2.654c.004-.017.005-.026.01-.034Zm1.959 1.894c-.139 0-.392.034-.62.147-.083.043-.161.093-.244.142l.075-.272-.04-.045c-.484.098-.592.112-1.038.175l-.038.025c-.051.434-.098.76-.29 1.613-.073.315-.149.632-.225.946l.02.04c.458-.025.597-.025.994-.018l.032-.036c.051-.261.058-.322.17-.851.052-.251.161-.802.216-.999.099-.046.197-.092.29-.092.223 0 .196.196.187.275-.01.131-.09.56-.174.928l-.055.238c-.039.175-.081.346-.12.52l.017.034c.45-.024.588-.024.973-.017l.045-.036c.07-.408.09-.517.214-1.111l.062-.273c.12-.534.18-.805.09-1.026-.097-.247-.328-.307-.541-.307Zm2.188.56c-.24.046-.392.077-.544.097-.15.025-.298.047-.53.08l-.018.016-.016.013c-.024.175-.041.325-.073.502a9.258 9.258 0 0 1-.137.69 2.74 2.74 0 0 1-.11.389c-.029.08-.06.158-.12.383l.014.021.011.02c.217-.011.358-.018.504-.02.145-.005.296 0 .529.002l.02-.017.022-.019c.034-.203.039-.257.06-.356.02-.106.055-.253.141-.646.04-.184.086-.368.129-.556.043-.188.09-.372.133-.556l-.006-.023-.01-.02Zm.005-.754c-.218-.13-.6-.089-.857.09-.256.176-.286.425-.069.557.214.126.598.088.853-.092.256-.18.288-.427.073-.555Zm1.317 3.005c.44 0 .892-.123 1.231-.486.262-.295.382-.734.423-.915.135-.6.03-.88-.102-1.05-.201-.26-.556-.343-.924-.343-.222 0-.749.023-1.161.406-.296.277-.433.652-.515 1.012-.083.367-.18 1.028.422 1.273.186.08.453.103.626.103Zm-.035-1.348c.102-.454.222-.835.528-.835.24 0 .257.284.15.739-.019.1-.107.477-.225.637-.082.118-.18.19-.288.19-.033 0-.224 0-.227-.288a1.97 1.97 0 0 1 .062-.443Zm2.79 1.29.035-.036c.048-.26.056-.322.165-.851.054-.251.165-.802.218-.999.1-.046.196-.092.292-.092.221 0 .195.196.186.275-.008.131-.09.56-.174.928l-.053.237c-.04.176-.084.347-.122.52l.017.035c.452-.024.584-.024.971-.017l.047-.036c.068-.408.086-.517.213-1.111l.06-.273c.122-.534.183-.805.094-1.026-.1-.247-.333-.307-.543-.307a1.5 1.5 0 0 0-.62.147 4.117 4.117 0 0 0-.242.142l.07-.272-.037-.045c-.483.099-.594.112-1.04.175l-.034.025c-.054.434-.098.76-.29 1.613-.073.315-.149.632-.225.946l.02.04c.459-.025.595-.025.992-.018Zm3.323.017.198-.97s.144-.61.153-.632c0 0 .045-.064.09-.089h.067c.628 0 1.338 0 1.894-.413.378-.283.637-.702.752-1.21.03-.125.052-.273.052-.421 0-.195-.039-.388-.15-.538-.284-.401-.849-.408-1.5-.411l-.322.003c-.834.01-1.169.007-1.306-.01l-.033.17-.3 1.402-.748 3.114c.728-.009 1.027-.009 1.153.005Zm.553-2.485.317-1.39.01-.072.005-.055.127.013.67.059c.259.1.365.361.29.701a1.02 1.02 0 0 1-.523.699c-.211.106-.47.115-.736.115h-.173l.013-.07Zm1.979 1.204c-.084.361-.18 1.022.418 1.257.19.082.361.106.535.097.184-.01.354-.102.511-.236l-.043.165.027.035c.43-.018.564-.018 1.03-.015l.043-.032c.068-.404.132-.797.309-1.57.086-.37.172-.737.26-1.106l-.013-.04c-.482.09-.61.108-1.073.175l-.035.029-.014.11a.664.664 0 0 0-.338-.28c-.206-.083-.69.023-1.105.405-.292.273-.433.647-.512 1.006Zm1.01.022c.104-.446.222-.823.529-.823.194 0 .296.18.275.49l-.055.249c-.03.132-.064.263-.096.395a.96.96 0 0 1-.114.231c-.079.113-.266.183-.374.183-.031 0-.22 0-.227-.282a1.95 1.95 0 0 1 .063-.443Zm5.28-1.472-.037-.042c-.476.097-.562.113-1 .172l-.032.033-.005.02-.002-.007c-.325.76-.316.596-.581 1.193l-.003-.073-.066-1.296-.042-.042c-.5.097-.51.113-.972.172l-.036.033c-.005.015-.005.032-.008.05l.003.007c.058.298.044.231.102.7.027.23.063.462.09.69.045.38.07.568.126 1.149-.311.518-.385.715-.684 1.17l.002.004-.211.337c-.024.036-.046.06-.077.07a.316.316 0 0 1-.138.02h-.117l-.174.584.596.01c.35 0 .57-.166.689-.388l.374-.649h-.006l.04-.046c.252-.548 2.17-3.87 2.17-3.87Zm-6.29 7.666h-.253l.936-3.126h.31l.099-.322.01.358c-.012.221.16.418.613.385h.524l.18-.602h-.197c-.113 0-.166-.029-.16-.09l-.009-.365h-.97v.002c-.313.006-1.25.03-1.44.081-.23.06-.47.236-.47.236l.094-.323h-.907l-.19.64-.948 3.174h-.184l-.18.598h1.807l-.06.199h.89l.06-.2h.249l.196-.645Zm-.742-2.49a4.03 4.03 0 0 0-.415.163l.24-.8h.721l-.174.583s-.223.013-.372.053Zm.014 1.14s-.226.03-.375.063c-.147.045-.423.187-.423.187l.249-.832h.725l-.176.583Zm-.404 1.358h-.723l.21-.702h.72l-.207.702Zm1.742-1.94h1.042l-.15.49h-1.056l-.158.536h.924l-.7.995a.29.29 0 0 1-.142.12.412.412 0 0 1-.188.055h-.256l-.176.586h.67c.35 0 .555-.16.707-.37l.48-.663.103.673a.32.32 0 0 0 .172.229c.068.034.137.092.235.1.105.005.181.009.232.009h.33l.197-.657h-.13c-.075 0-.203-.012-.225-.036-.022-.029-.022-.073-.034-.14l-.104-.675h-.428l.187-.226h1.055l.162-.536h-.976l.152-.49h.973l.18-.604h-2.9l-.178.604Zm-8.805 2.076.243-.817h1l.183-.608h-1l.152-.504h.978l.181-.588H13.42l-.177.588h.556l-.149.504h-.557l-.185.618h.556l-.325 1.082c-.043.143.021.197.062.264a.268.268 0 0 0 .179.132c.098.022.165.035.256.035h1.128l.2-.673-.5.069c-.096 0-.363-.012-.334-.102Zm.115-3.914-.253.463a.537.537 0 0 1-.148.193c-.038.024-.115.034-.226.034h-.132l-.177.592h.44a.988.988 0 0 0 .45-.117c.083-.045.105-.02.17-.082l.148-.13h1.37l.183-.616h-1.004l.175-.337h-.996Zm2.024 3.926c-.023-.034-.006-.094.03-.219l.374-1.253h1.334c.194-.002.334-.005.425-.011a.866.866 0 0 0 .321-.11.602.602 0 0 0 .233-.216c.058-.08.15-.256.23-.527l.471-1.586-1.383.008s-.426.064-.614.134c-.189.078-.46.296-.46.296l.125-.434h-.854l-1.197 4.008c-.042.155-.07.268-.077.336-.002.073.091.146.152.2.071.055.177.046.279.055.107.008.258.013.468.013h.657l.201-.687-.588.056a.154.154 0 0 1-.127-.063Zm.646-2.318h1.4l-.089.282c-.012.007-.042-.014-.184.003h-1.213l.086-.285Zm.28-.945h1.413l-.102.34s-.665-.007-.772.013c-.469.082-.743.335-.743.335l.205-.688Zm1.063 2.17a.15.15 0 0 1-.056.088c-.028.018-.074.025-.143.025h-.2l.012-.343h-.83l-.033 1.678c-.002.12.01.19.098.247.087.07.358.079.721.079h.52l.188-.628-.452.025-.151.009c-.02-.009-.04-.017-.062-.04-.02-.018-.051-.007-.046-.128l.003-.43.475-.02c.257 0 .366-.084.46-.164.089-.077.118-.165.152-.285l.08-.38h-.653l-.083.268Z" fill="#FEFEFE"/></svg>