<svg width="35" height="27" fill="none" xmlns="http://www.w3.org/2000/svg"><path d="M22.155 18.875H12.79V2.472h9.365v16.403Z" fill="#6C6BBD"/><path d="M13.384 10.674c0-3.327 1.599-6.291 4.088-8.201a10.832 10.832 0 0 0-6.614-2.23C4.948.242.156 4.912.156 10.673s4.791 10.432 10.702 10.432c2.497 0 4.794-.834 6.614-2.23-2.489-1.91-4.088-4.875-4.088-8.202Z" fill="#EB001B"/><path d="M34.788 10.674c0 5.761-4.79 10.432-10.701 10.432a10.84 10.84 0 0 1-6.615-2.23c2.49-1.91 4.088-4.875 4.088-8.202s-1.598-6.291-4.088-8.201a10.836 10.836 0 0 1 6.615-2.23c5.91 0 10.701 4.67 10.701 10.431Z" fill="#0099DF"/><path d="M25.323 23.51c.125 0 .303.023.44.075l-.19.568a1.025 1.025 0 0 0-.387-.07c-.404 0-.606.255-.606.713v1.553h-.619v-2.77h.613v.337a.843.843 0 0 1 .749-.406Zm-2.285.62h-1.01v1.252c0 .277.1.463.41.463.16 0 .363-.052.546-.156l.179.515c-.196.133-.505.215-.773.215-.731 0-.986-.383-.986-1.026V24.13h-.577v-.55h.577v-.84h.624v.84h1.01v.55Z" fill="#fff"/><path fill-rule="evenodd" clip-rule="evenodd" d="M15.892 23.51c.797 0 1.344.59 1.35 1.454 0 .08-.006.155-.012.23v.002h-2.11c.089.498.451.678.85.678.285 0 .588-.104.826-.29l.303.446c-.345.284-.737.388-1.165.388-.85 0-1.457-.573-1.457-1.454 0-.863.583-1.454 1.415-1.454Zm-.012.538c-.44 0-.689.273-.755.673H16.6c-.066-.43-.322-.672-.72-.672Z" fill="#fff"/><path d="M19.958 24.287a1.858 1.858 0 0 0-.885-.238c-.339 0-.541.122-.541.325 0 .184.214.237.481.271l.291.04c.619.088.993.343.993.83 0 .527-.476.904-1.296.904-.463 0-.892-.116-1.23-.36l.29-.47c.209.157.519.29.947.29.422 0 .648-.12.648-.336 0-.155-.161-.243-.5-.289l-.291-.04c-.636-.088-.981-.366-.981-.817 0-.55.464-.887 1.183-.887.452 0 .862.099 1.159.29l-.268.487Z" fill="#fff"/><path fill-rule="evenodd" clip-rule="evenodd" d="M28.195 23.622a1.636 1.636 0 0 0-.612-.112c-.22 0-.425.037-.613.112a1.426 1.426 0 0 0-.922 1.352 1.44 1.44 0 0 0 .437 1.044c.136.13.298.233.485.308.188.074.392.111.613.111.22 0 .424-.037.612-.111.188-.075.35-.177.487-.308a1.411 1.411 0 0 0 .439-1.044 1.408 1.408 0 0 0-.438-1.044c-.137-.13-.3-.234-.488-.308Zm-.967.525a.958.958 0 0 1 .355-.065c.127 0 .245.022.354.065a.852.852 0 0 1 .543.827.929.929 0 0 1-.069.361.84.84 0 0 1-.474.465.944.944 0 0 1-.354.065.946.946 0 0 1-.355-.065.846.846 0 0 1-.47-.465.929.929 0 0 1-.069-.361c0-.132.023-.252.068-.362a.847.847 0 0 1 .471-.465Zm-13.414-.567v2.769h-.618v-.336c-.197.25-.493.406-.898.406-.796 0-1.42-.609-1.42-1.455 0-.846.623-1.454 1.42-1.454.405 0 .701.156.898.406v-.336h.618Zm-1.439.498c-.535 0-.862.4-.862.886 0 .487.327.887.862.887.511 0 .856-.383.856-.887s-.345-.886-.856-.886Z" fill="#fff"/><path d="M10.33 26.35v-1.74c0-.654-.428-1.094-1.117-1.1-.362-.006-.737.104-.999.493-.196-.307-.505-.493-.94-.493-.302 0-.6.087-.832.411v-.341h-.618v2.77h.624v-1.536c0-.481.274-.736.696-.736.41 0 .618.26.618.73v1.541h.624v-1.535c0-.481.286-.736.696-.736.422 0 .625.26.625.73v1.541h.623Z" fill="#fff"/></svg>