<svg width="329" height="89" fill="none" xmlns="http://www.w3.org/2000/svg"><g clip-path="url(#a)"><path d="m73.512-9.73 4.568-3.925a4.1 4.1 0 0 0 .438-5.783l-4.343-5.054c-3.874-4.509-10.67-5.024-15.18-1.15L44.234-12.956a11.79 11.79 0 0 0-4.073 8.052l-.585 7.733a4.034 4.034 0 0 1-4.327 3.718c-3.584-.272-5.707 3.925-3.364 6.651l20.83 24.243a7.249 7.249 0 0 0 12.726-4.177l.129-1.704a11.375 11.375 0 0 1 3.93-7.769l1.577-1.355c4.777-4.105 5.323-11.305 1.218-16.083-4.105-4.777-3.56-11.978 1.218-16.082Z" stroke="url(#b)"/><path d="m247.901 13.192 3.475-2.986a3.12 3.12 0 0 0 .333-4.398l-3.303-3.844a8.188 8.188 0 0 0-11.546-.875l-11.228 9.649a8.968 8.968 0 0 0-3.098 6.124l-.445 5.882a3.069 3.069 0 0 1-3.292 2.827c-2.725-.206-4.34 2.986-2.559 5.06l15.844 18.44a5.513 5.513 0 0 0 9.68-3.178l.098-1.296a8.649 8.649 0 0 1 2.989-5.91l1.2-1.03a8.675 8.675 0 0 0 .926-12.233 8.675 8.675 0 0 1 .926-12.232Z" stroke="url(#c)"/><path d="m185.717-1.678 5.517 5.516a5.31 5.31 0 0 0 7.511 0l6.103-6.103c5.445-5.445 5.445-14.273 0-19.718l-17.906-17.906a15.001 15.001 0 0 0-10.607-4.394h-10.157a5.225 5.225 0 0 1-5.225-5.225c0-4.655-5.628-6.986-8.92-3.695l-29.275 29.276A9.389 9.389 0 0 0 129.397-7.9h2.214c3.908 0 7.655 1.553 10.419 4.316l1.904 1.905c5.769 5.769 15.123 5.769 20.892 0 5.769-5.77 15.122-5.77 20.891 0Z" stroke="url(#d)"/><path d="m43.22 69.754 1.683 1.684c3.322 3.322 8.967.544 8.36-4.115-.433-3.336 2.533-6.114 5.833-5.464l1.94.382c5.863 1.155 9.924-5.699 6.096-10.288l-4.74-5.68a8.965 8.965 0 0 1-2.021-4.707l-1.466-12.598a15 15 0 0 0-14.9-13.265H31.061a15 15 0 0 0-10.607 4.393l-33.802 33.802a9.39 9.39 0 0 0 6.64 16.028h2.214c3.907 0 7.655 1.553 10.418 4.316l1.905 1.905c5.77 5.769 15.123 5.769 20.892 0l6.392-6.393a5.732 5.732 0 0 1 8.106 0Z" stroke="url(#e)"/><path d="m164.716 73.365 1.683 1.683c3.322 3.322 8.967.544 8.361-4.115-.434-3.335 2.532-6.113 5.832-5.463l1.939.382c5.864 1.154 9.926-5.7 6.097-10.288l-4.74-5.68a8.968 8.968 0 0 1-2.021-4.708l-1.466-12.597a15 15 0 0 0-14.9-13.266h-12.944c-3.978 0-7.794 1.58-10.607 4.393l-33.801 33.802a9.389 9.389 0 0 0 6.639 16.029h2.214c3.907 0 7.655 1.552 10.418 4.315l1.905 1.905c5.769 5.77 15.123 5.77 20.892 0l6.392-6.392a5.733 5.733 0 0 1 8.107 0Z" stroke="url(#f)"/><path d="m263.592 27.403-7.184 12.436a11.041 11.041 0 0 0-.309 10.475l2.929 5.838c1.945 3.875-.484 8.515-4.776 9.125-5.917.841-7.494 8.65-2.367 11.722l6.347 3.802a8.964 8.964 0 0 1 3.459 3.778l5.535 11.411a15 15 0 0 0 18.438 7.616l12.222-4.264a15.003 15.003 0 0 0 8.567-7.643l20.777-43.051a9.389 9.389 0 0 0-11.549-12.946l-2.091.729a14.732 14.732 0 0 1-11.258-.642l-13.067-6.306a12.82 12.82 0 0 1-4.495-3.608c-5.616-7.118-16.643-6.323-21.178 1.528Z" stroke="url(#g)"/><g clip-path="url(#h)"><path d="M107.846-13.27a1.752 1.752 0 0 0-1.346-1.33 14.127 14.127 0 0 0-5.739.052c-.029.007-.058.008-.086.02a14.09 14.09 0 0 0-6.972 3.795 14.112 14.112 0 0 0-3.795 6.974c-.011.028-.014.058-.02.087a14.129 14.129 0 0 0-.052 5.739 1.744 1.744 0 0 0 1.33 1.345 13.997 13.997 0 0 0 12.87-3.807 13.996 13.996 0 0 0 3.78-6.962.596.596 0 0 0 .058-.25c.364-1.842.378-3.76-.028-5.663ZM91.409 2.275a.575.575 0 0 1-.433-.437 12.958 12.958 0 0 1-.137-4.15l4.766 4.767c-1.38.16-2.794.12-4.196-.18Zm11.807-3.493a12.847 12.847 0 0 1-6.211 3.429l-5.916-5.917a12.943 12.943 0 0 1 3.436-6.205 12.955 12.955 0 0 1 6.193-3.444l5.923 5.924a12.852 12.852 0 0 1-3.425 6.213Zm3.669-7.613-4.776-4.777a12.924 12.924 0 0 1 1.587-.109c.854 0 1.716.085 2.573.257.214.043.394.22.439.434a12.87 12.87 0 0 1 .177 4.195Z" fill="url(#i)"/></g><g clip-path="url(#j)"><path d="M243.162 86.063a7.47 7.47 0 0 0-2.203-5.319 7.471 7.471 0 0 0-5.319-2.203 7.475 7.475 0 0 0-5.319 2.205 7.474 7.474 0 0 0-2.204 5.32 7.47 7.47 0 0 0 2.202 5.318 7.473 7.473 0 0 0 5.319 2.203c2.01 0 3.899-.783 5.32-2.204a7.474 7.474 0 0 0 2.204-5.32Zm-2.538 4.291a8.17 8.17 0 0 1-1.188-3.82h2.762a6.516 6.516 0 0 1-1.574 3.82Zm1.575-4.76h-2.762a8.171 8.171 0 0 1 1.188-3.821 6.513 6.513 0 0 1 1.574 3.82Zm-2.258-4.504a9.133 9.133 0 0 0-1.445 4.504h-2.387l.001-6.09c1.423.1 2.754.65 3.831 1.585Zm-4.771-1.585-.001 6.09h-2.387a9.12 9.12 0 0 0-1.443-4.504 6.51 6.51 0 0 1 3.831-1.586Zm-4.515 2.27a8.175 8.175 0 0 1 1.187 3.82h-2.762a6.524 6.524 0 0 1 1.575-3.82Zm-1.575 4.76h2.762a8.171 8.171 0 0 1-1.188 3.82 6.513 6.513 0 0 1-1.574-3.82Zm2.257 4.504a9.113 9.113 0 0 0 1.445-4.504h2.387l-.001 6.089a6.51 6.51 0 0 1-3.831-1.585Zm4.772 1.584v-6.089h2.387a9.112 9.112 0 0 0 1.444 4.504 6.516 6.516 0 0 1-3.831 1.585Z" fill="url(#k)"/></g><path d="M255.152-4.98a7.88 7.88 0 0 0-.24 2.665l.001.014A7.993 7.993 0 0 0 256.596 2l.005.006a7.92 7.92 0 0 0 4.185 2.77c4.243 1.137 8.62-1.39 9.757-5.634 1.137-4.243-1.39-8.62-5.633-9.758-4.244-1.136-8.621 1.391-9.758 5.634Zm6.226-4.747a6.919 6.919 0 0 1 2.471-.087l-1.313.683-1.158-.596Zm-1.335.433 2.05 1.056.335 1.707-2.767 2.235-1.877-.503-.534-2.264a6.981 6.981 0 0 1 2.793-2.23Zm2.955 3.583 2.679 1.852-.849 3.168-3.241.25-1.215-3.15 2.626-2.12Zm-6.884.988c.103-.386.243-.75.404-1.102l.303 1.281-.906.958c.038-.378.097-.758.199-1.137Zm-.188 2.577 1.598-1.693 1.879.504 1.28 3.317-1.148 1.318-2.315-.115a6.985 6.985 0 0 1-1.294-3.331Zm2.23 4.375 1.317.065.8 1.26a6.884 6.884 0 0 1-2.117-1.325Zm7.008 1.423a6.928 6.928 0 0 1-3.458.305l-1.332-2.102 1.124-1.29 3.477-.268.88 1.247-.691 2.108Zm1.239-.582.368-1.122 1.118-.055c-.441.46-.943.854-1.486 1.177Zm3.408-5.961a6.936 6.936 0 0 1-.23 1.777 6.93 6.93 0 0 1-.875 1.97l-2.047.1-.9-1.274.911-3.4 1.377-.646 1.764 1.473Zm-.14-1.414-1.034-.863.098-1.462a6.98 6.98 0 0 1 .936 2.325Zm-2.024-.972-1.351.636-2.872-1.984-.328-1.673 2.201-1.146a6.901 6.901 0 0 1 2.519 1.648l-.169 2.52Z" fill="url(#l)"/><g clip-path="url(#m)"><path d="M85.686 46.137h-.002a.06.06 0 0 0-.075.038l-.476-.154.476.153c-.034.105-.08.22-.116.305l-.03.075-.126.315h-.34l-11.451.002h-.34l-.125-.315a6.507 6.507 0 0 1-.479-2.41v-.002c.009-2.117.991-4.388 2.558-5.954.826-.827 2.236-1.867 4.109-1.868 1.677-.008 3.284.864 4.546 2.353l.005.007.005.006a.03.03 0 0 0 .01.009.04.04 0 0 0 .016.004.065.065 0 0 0 .047-.017h.001a.06.06 0 0 0 .008-.085c-1.33-1.58-2.986-2.405-4.638-2.397h-.002c-1.456 0-2.949.66-4.192 1.903-1.592 1.592-2.583 3.916-2.592 6.04 0 .954.221 1.876.602 2.726l.015.032.01.034a.212.212 0 0 0 .007.022l.008.015.01.019a6.76 6.76 0 0 0 3.831 3.487c.656.228 1.123.835 1.122 1.535l-.007 4.159c-.001.313.12.609.347.835.226.226.522.348.835.348h.001c.652 0 1.184-.533 1.184-1.185l-.005-4.156c0-.702.47-1.307 1.126-1.537a6.793 6.793 0 0 0 4.155-4.267l-.038-.075Zm0 0a.057.057 0 0 1 .034.03m-.034-.03.034.03m0 0a.058.058 0 0 1 .004.045l-.004-.045Zm-6.456 11.07h.001c.584 0 1.063-.483 1.065-1.065v-.002l-.007-4.156c0-.727.476-1.395 1.205-1.65l.003-.002a6.68 6.68 0 0 0 3.3-2.598l.516-.777h-.933l-10.29.002h-.93l.513.776a6.631 6.631 0 0 0 3.298 2.6l.003.002c.727.254 1.202.922 1.2 1.647l-.007 4.159c0 .575.49 1.063 1.063 1.064Z" stroke="url(#n)"/><path d="M83.976 41.082a1.743 1.743 0 0 1 2.462 0 1.743 1.743 0 0 1 0 2.462 1.743 1.743 0 0 1-2.462 0 1.743 1.743 0 0 1 0-2.462Zm.085.085a1.621 1.621 0 0 0 2.292 2.292 1.621 1.621 0 0 0-2.292-2.292Z" stroke="url(#o)"/></g><path fill-rule="evenodd" clip-rule="evenodd" d="m124.686 42.707 1.338-4.73h6.206c3.268 0 5.262-1.492 6.165-4.679l.503-1.746c1.152-4.047-.727-6.552-4.863-6.552h-27.021L102 42.707h22.686Zm9.324-12.926-1.054 3.819h-5.693l1.082-3.806 5.665-.013Zm7.194 12.926 1.662-2.958h7.687v2.958h5.064V25h-9.927l-10.353 17.707h5.867Zm7.249-12.9h2.1v5.64h-5.281l3.181-5.64Zm28.228 1.745-.46 1.594h-.01c-.659 2.347-1.909 3.763-3.805 4.354l1.585 5.207h-5.407l-1.473-4.882h-3.269l-1.383 4.882h-5.263L162.207 25h9.601c4.136 0 6.017 2.454 4.873 6.552Zm-4.896-1.771h-5.665l-1.083 3.819h5.697l1.051-3.82Zm9.375 12.926L186.171 25h-5.263l-5.014 17.707h5.266Zm-38.148 9.61 5.937-7.08h6.816l-5.011 17.708h-5.265l2.891-10.125-4.895 5.798H140.1l-1.843-5.474-2.769 9.8h-22.686l5.014-17.707h22.762l2.434 7.08Zm19.781-7.08-10.352 17.708h5.866l1.663-2.962h7.686v2.962h5.062V45.237h-9.925Zm-.407 10.448 3.171-5.642h2.099v5.642h-5.27Zm29.533-10.448-1.428 5.06h-4.941l-3.581 12.648h-5.263l3.581-12.648h-5.763l1.428-5.06h15.967Zm5.565 5.06h7.971l1.456-5.06h-8.499c-3.269 0-5.263 1.492-6.166 4.68l-1.856 6.476c-1.177 4.149.727 6.552 4.863 6.552h6.618l1.429-5.06h-7.971l2.155-7.588Zm21.22 1.264 1.793-6.324h5.263l-5.014 17.708h-5.263l1.79-6.324h-6.017l-1.79 6.324h-5.264l5.015-17.708h5.262l-1.79 6.324h6.015Z" fill="#fff"/><path fill-rule="evenodd" clip-rule="evenodd" d="M243.724-4.745a3.791 3.791 0 0 1 7.021 1.255 3.792 3.792 0 0 1 2.736 7.072l.948.547a2.916 2.916 0 0 1 1.067 3.985l-.729 1.263a.875.875 0 0 1-1.195.32l-6.77-3.908a.35.35 0 0 1-.128-.479l2.019-3.496a3.813 3.813 0 0 1-.371-1.107 3.818 3.818 0 0 1-1.144.232l-2.019 3.496a.35.35 0 0 1-.478.129l-6.77-3.909a.875.875 0 0 1-.32-1.195l.729-1.263a2.917 2.917 0 0 1 3.984-1.068l.948.548a3.775 3.775 0 0 1 .472-2.422Zm5.051 2.916a2.041 2.041 0 1 0-3.534-2.042 2.041 2.041 0 0 0 3.534 2.042Zm1.516.875a2.042 2.042 0 1 0 3.537 2.042 2.042 2.042 0 0 0-3.537-2.042Z" fill="#F7F8FD"/><path d="M244.021 6.406a.35.35 0 0 0-.128-.478l-5.356-3.093a.972.972 0 0 0-1.233.22 13.54 13.54 0 0 0-2.284 3.957l-.537 1.454a2.341 2.341 0 0 0 .808 2.697l1.007.741a43.446 43.446 0 0 0 2.977 2.009.347.347 0 0 0 .483-.123l4.263-7.384Zm-2.612 8.739a.347.347 0 0 1-.135-.48l4.263-7.384a.35.35 0 0 1 .478-.128l5.356 3.092a.97.97 0 0 1 .425 1.178 13.516 13.516 0 0 1-2.284 3.956l-.99 1.192a2.343 2.343 0 0 1-2.74.649l-1.145-.501a43.327 43.327 0 0 1-3.228-1.574Z" fill="#F7F8FD"/><path fill-rule="evenodd" clip-rule="evenodd" d="M243.551 43.318a1.624 1.624 0 0 1 .538-3.008 1.625 1.625 0 0 1 3.03-1.172l.234-.406a1.25 1.25 0 0 1 1.707-.457l.541.312c.179.104.24.333.137.512l-1.674 2.9a.15.15 0 0 1-.205.055l-1.498-.865a1.69 1.69 0 0 1-.474.16 1.6 1.6 0 0 1 .099.49l1.498.864a.15.15 0 0 1 .055.205l-1.674 2.9a.375.375 0 0 1-.512.137l-.541-.313a1.249 1.249 0 0 1-.457-1.706l.234-.406a1.62 1.62 0 0 1-1.038-.202Zm1.25-2.164a.875.875 0 1 0-.875 1.516.875.875 0 0 0 .875-1.516Zm.375-.65a.874.874 0 1 0 .874-1.512.874.874 0 0 0-.874 1.513Z" fill="#F7F8FD"/><path d="M248.328 43.19a.15.15 0 0 0-.205.055l-1.324 2.294a.415.415 0 0 0 .094.529c.505.42 1.079.75 1.695.978l.622.23c.42.155.891.014 1.156-.346l.317-.431c.305-.414.592-.84.861-1.276a.149.149 0 0 0-.053-.207l-3.163-1.826Zm3.744 1.12a.15.15 0 0 1-.206.057l-3.163-1.826a.15.15 0 0 1-.055-.205l1.325-2.294a.415.415 0 0 1 .504-.182c.617.227 1.19.558 1.695.978l.51.424c.344.286.457.764.278 1.174l-.214.49c-.206.471-.431.932-.674 1.383Z" fill="#F7F8FD"/><path fill-rule="evenodd" clip-rule="evenodd" d="M63.12 11.193a1.624 1.624 0 0 1 2.766 1.298 1.624 1.624 0 0 1 .348 3.23l.332.331a1.25 1.25 0 0 1 0 1.767l-.442.442a.375.375 0 0 1-.53 0l-2.367-2.368a.15.15 0 0 1 0-.212l1.223-1.223a1.632 1.632 0 0 1-.032-.5 1.632 1.632 0 0 1-.499-.03l-1.223 1.223a.15.15 0 0 1-.212 0l-2.367-2.368a.375.375 0 0 1 0-.53l.442-.441a1.25 1.25 0 0 1 1.766 0l.332.331c.042-.347.197-.683.464-.95Zm1.767 1.767a.875.875 0 1 0-1.237-1.237.875.875 0 0 0 1.237 1.237Zm.53.53a.875.875 0 1 0 1.237 1.237.875.875 0 0 0-1.237-1.237Z" fill="#F7F8FD"/><path d="M62.007 15.84a.15.15 0 0 0 0-.212l-1.873-1.873a.416.416 0 0 0-.535-.046 5.792 5.792 0 0 0-1.383 1.384l-.383.542a1 1 0 0 0 .035 1.205l.334.419c.32.4.657.788 1.01 1.16a.15.15 0 0 0 .213.003l2.582-2.582Zm-2.049 3.326a.149.149 0 0 1-.003-.213l2.582-2.583a.15.15 0 0 1 .212 0l1.874 1.873c.143.144.162.37.045.535a5.79 5.79 0 0 1-1.384 1.384l-.541.383a1.003 1.003 0 0 1-1.206-.035l-.418-.335c-.401-.32-.789-.657-1.161-1.009Z" fill="#F7F8FD"/><path fill-rule="evenodd" clip-rule="evenodd" d="M71.361 65.085a1.624 1.624 0 0 1 2.507-1.746 1.624 1.624 0 0 1 2.97 1.313l.454-.121a1.25 1.25 0 0 1 1.53.883l.162.603a.375.375 0 0 1-.265.46l-3.235.866a.15.15 0 0 1-.183-.106l-.448-1.67a1.636 1.636 0 0 1-.448-.223c-.07.152-.163.292-.276.416l.448 1.67a.15.15 0 0 1-.106.184l-3.234.867a.375.375 0 0 1-.46-.265l-.161-.603a1.25 1.25 0 0 1 .883-1.53l.453-.122a1.617 1.617 0 0 1-.59-.876Zm2.414-.647a.875.875 0 1 0-1.69.453.875.875 0 0 0 1.69-.453Zm.724-.194a.875.875 0 1 0 1.69-.453.875.875 0 0 0-1.69.453Z" fill="#F7F8FD"/><path d="M74.829 68.372a.15.15 0 0 0-.184-.106l-2.559.686a.416.416 0 0 0-.306.44c.06.654.231 1.294.506 1.89l.278.603c.187.406.62.64 1.061.572l.53-.08a18.571 18.571 0 0 0 1.51-.293.149.149 0 0 0 .11-.184l-.946-3.528Zm1.856 3.438a.149.149 0 0 1-.187-.104l-.945-3.528a.15.15 0 0 1 .106-.183l2.559-.686a.416.416 0 0 1 .486.228c.274.597.446 1.236.506 1.89l.061.661c.041.445-.217.864-.633 1.026l-.499.196c-.478.187-.963.354-1.454.5Z" fill="#F7F8FD"/><path fill-rule="evenodd" clip-rule="evenodd" d="M124.129-4.628a2.967 2.967 0 0 1 5.052 2.371 2.966 2.966 0 0 1 .636 5.9l.605.605a2.281 2.281 0 0 1 0 3.228l-.806.806a.686.686 0 0 1-.969 0l-4.325-4.325a.274.274 0 0 1 0-.387l2.234-2.234a3.004 3.004 0 0 1-.056-.912c-.305.028-.612.01-.912-.056l-2.234 2.234a.273.273 0 0 1-.387 0l-4.325-4.325a.684.684 0 0 1 0-.968l.807-.807a2.282 2.282 0 0 1 3.227 0l.606.605a2.95 2.95 0 0 1 .847-1.735Zm3.227 3.228a1.597 1.597 0 1 0-2.259-2.26 1.597 1.597 0 0 0 2.259 2.26Zm.969.968a1.597 1.597 0 1 0 2.259 2.26 1.597 1.597 0 0 0-2.259-2.26Z" fill="#0079F0"/><path d="M122.095 3.86a.274.274 0 0 0 0-.387L118.673.051a.76.76 0 0 0-.976-.083 10.578 10.578 0 0 0-2.528 2.528l-.7.99a1.833 1.833 0 0 0 .064 2.202l.611.764c.585.733 1.2 1.44 1.843 2.121a.273.273 0 0 0 .391.005l4.717-4.717Zm-3.744 6.077a.272.272 0 0 1-.005-.39l4.718-4.718a.273.273 0 0 1 .387 0l3.422 3.422a.76.76 0 0 1 .083.976 10.577 10.577 0 0 1-2.528 2.528l-.99.7a1.832 1.832 0 0 1-2.202-.064l-.764-.61a33.643 33.643 0 0 1-2.121-1.844Z" fill="#0079F0"/><path fill-rule="evenodd" clip-rule="evenodd" d="M200.558 77.644a2.427 2.427 0 0 1 2.944-3.49 2.428 2.428 0 0 1 4.796.747l.607-.351a1.868 1.868 0 0 1 2.551.684l.467.808a.56.56 0 0 1-.205.765l-4.334 2.502a.224.224 0 0 1-.306-.081l-1.293-2.24a2.436 2.436 0 0 1-.732-.148 2.472 2.472 0 0 1-.238.709l1.292 2.239a.223.223 0 0 1-.082.306l-4.333 2.502a.561.561 0 0 1-.766-.205l-.466-.809a1.867 1.867 0 0 1 .683-2.55l.607-.35a2.413 2.413 0 0 1-1.192-1.038Zm3.234-1.867a1.308 1.308 0 1 0-2.265 1.308 1.308 1.308 0 0 0 2.265-1.308Zm.97-.56a1.308 1.308 0 1 0 2.265-1.308 1.308 1.308 0 0 0-2.265 1.308Z" fill="#0079F0"/><path d="M206.836 81.049a.224.224 0 0 0-.306-.082l-3.429 1.98a.622.622 0 0 0-.273.754 8.666 8.666 0 0 0 1.463 2.533l.634.763a1.499 1.499 0 0 0 1.754.415l.733-.32a27.967 27.967 0 0 0 2.067-1.008.223.223 0 0 0 .086-.308l-2.729-4.727Zm4.009 4.246a.223.223 0 0 1-.31-.079l-2.729-4.727a.224.224 0 0 1 .082-.306l3.429-1.98a.621.621 0 0 1 .789.141 8.644 8.644 0 0 1 1.463 2.533l.344.93a1.5 1.5 0 0 1-.518 1.727l-.644.475c-.618.455-1.254.884-1.906 1.286Z" fill="#0079F0"/><path fill-rule="evenodd" clip-rule="evenodd" d="M201.008 14.923a2.762 2.762 0 0 1 5.178-.44 2.764 2.764 0 0 1 3.26 4.461l.77.207a2.126 2.126 0 0 1 1.503 2.603l-.275 1.026a.638.638 0 0 1-.781.45l-5.502-1.473a.254.254 0 0 1-.18-.313l.761-2.841a2.786 2.786 0 0 1-.47-.71 2.773 2.773 0 0 1-.761.38l-.762 2.841a.255.255 0 0 1-.312.18l-5.501-1.473a.637.637 0 0 1-.451-.781l.275-1.027a2.125 2.125 0 0 1 2.603-1.502l.77.206a2.748 2.748 0 0 1-.125-1.794Zm4.105 1.1a1.487 1.487 0 1 0-2.873-.77 1.487 1.487 0 0 0 2.873.77Zm1.232.33a1.487 1.487 0 1 0 2.873.771 1.487 1.487 0 0 0-2.873-.77Z" fill="url(#p)"/><path d="M203.32 22.715a.254.254 0 0 0-.18-.312l-4.353-1.166a.708.708 0 0 0-.826.388 9.871 9.871 0 0 0-.862 3.215l-.103 1.124a1.706 1.706 0 0 0 1.077 1.746l.848.332c.813.318 1.639.603 2.474.852.137.041.28-.04.317-.178l1.608-6Z" fill="url(#q)"/><path d="M203.13 29.359a.254.254 0 0 1-.186-.313l1.608-6a.255.255 0 0 1 .312-.18l4.353 1.166a.708.708 0 0 1 .522.748 9.847 9.847 0 0 1-.862 3.216l-.472 1.025a1.706 1.706 0 0 1-1.806.974l-.901-.137a30.63 30.63 0 0 1-2.568-.5Z" fill="url(#r)"/><path fill-rule="evenodd" clip-rule="evenodd" d="M50.858 3.873a2.228 2.228 0 0 1 3.44-2.396 2.228 2.228 0 0 1 4.076 1.802l.62-.166a1.714 1.714 0 0 1 2.1 1.212l.221.828a.514.514 0 0 1-.363.63L56.515 6.97a.206.206 0 0 1-.252-.145l-.614-2.292a2.24 2.24 0 0 1-.615-.306 2.24 2.24 0 0 1-.379.572l.614 2.292a.206.206 0 0 1-.145.252l-4.438 1.19a.514.514 0 0 1-.63-.365l-.221-.827a1.714 1.714 0 0 1 1.212-2.1l.621-.166a2.219 2.219 0 0 1-.81-1.203Zm3.311-.887a1.2 1.2 0 1 0-2.318.621 1.2 1.2 0 0 0 2.318-.621Zm.993-.266a1.2 1.2 0 1 0 2.318-.621 1.2 1.2 0 0 0-2.318.62Z" fill="url(#s)"/><path d="M55.615 8.384a.206.206 0 0 0-.252-.146l-3.51.94a.571.571 0 0 0-.421.605c.083.898.318 1.775.695 2.593l.38.828c.257.556.85.877 1.457.785l.727-.11c.696-.106 1.387-.24 2.072-.403a.204.204 0 0 0 .15-.252l-1.298-4.84Z" fill="url(#t)"/><path d="M58.161 13.101a.204.204 0 0 1-.255-.143l-1.297-4.84a.206.206 0 0 1 .145-.252l3.51-.941a.57.57 0 0 1 .667.313c.377.818.612 1.695.695 2.593l.084.907a1.376 1.376 0 0 1-.869 1.408l-.684.268a25.45 25.45 0 0 1-1.996.687Z" fill="url(#u)"/></g><defs><linearGradient id="b" x1="83.779" y1="-13.315" x2="40.819" y2="23.597" gradientUnits="userSpaceOnUse"><stop offset=".148" stop-color="#474B61"/><stop offset="1" stop-color="#1F2235" stop-opacity="0"/></linearGradient><linearGradient id="c" x1="255.711" y1="10.465" x2="223.035" y2="38.541" gradientUnits="userSpaceOnUse"><stop offset=".148" stop-color="#474B61"/><stop offset="1" stop-color="#1F2235" stop-opacity="0"/></linearGradient><linearGradient id="d" x1="191.351" y1="11.232" x2="139.475" y2="-40.644" gradientUnits="userSpaceOnUse"><stop offset=".148" stop-color="#474B61"/><stop offset="1" stop-color="#1F2235" stop-opacity="0"/></linearGradient><linearGradient id="e" x1="55.245" y1="89.057" x2="3.368" y2="37.181" gradientUnits="userSpaceOnUse"><stop offset=".148" stop-color="#474B61"/><stop offset="1" stop-color="#1F2235" stop-opacity="0"/></linearGradient><linearGradient id="f" x1="176.741" y1="92.668" x2="124.865" y2="40.791" gradientUnits="userSpaceOnUse"><stop offset=".148" stop-color="#474B61"/><stop offset="1" stop-color="#1F2235" stop-opacity="0"/></linearGradient><linearGradient id="g" x1="250.884" y1="38.05" x2="316.955" y2="69.939" gradientUnits="userSpaceOnUse"><stop offset=".148" stop-color="#474B61"/><stop offset="1" stop-color="#1F2235" stop-opacity="0"/></linearGradient><linearGradient id="i" x1="98.858" y1="-14.869" x2="98.858" y2="3.726" gradientUnits="userSpaceOnUse"><stop offset=".148" stop-color="#474B61"/><stop offset="1" stop-color="#1F2235" stop-opacity="0"/></linearGradient><linearGradient id="k" x1="240.959" y1="80.744" x2="230.319" y2="91.384" gradientUnits="userSpaceOnUse"><stop offset=".148" stop-color="#474B61"/><stop offset="1" stop-color="#1F2235" stop-opacity="0"/></linearGradient><linearGradient id="l" x1="255.152" y1="-4.981" x2="270.543" y2="-.857" gradientUnits="userSpaceOnUse"><stop offset=".148" stop-color="#474B61"/><stop offset="1" stop-color="#1F2235" stop-opacity="0"/></linearGradient><linearGradient id="n" x1="85.602" y1="39.543" x2="72.928" y2="52.216" gradientUnits="userSpaceOnUse"><stop offset=".521" stop-color="#474B61"/><stop offset="1" stop-color="#1F2235" stop-opacity="0"/></linearGradient><linearGradient id="o" x1="86.791" y1="40.729" x2="83.623" y2="43.897" gradientUnits="userSpaceOnUse"><stop offset=".521" stop-color="#474B61"/><stop offset="1" stop-color="#1F2235" stop-opacity="0"/></linearGradient><linearGradient id="p" x1="206.444" y1="13.52" x2="202.262" y2="29.127" gradientUnits="userSpaceOnUse"><stop offset=".148" stop-color="#474B61"/><stop offset="1" stop-color="#1F2235" stop-opacity="0"/></linearGradient><linearGradient id="q" x1="206.444" y1="13.52" x2="202.262" y2="29.127" gradientUnits="userSpaceOnUse"><stop offset=".148" stop-color="#474B61"/><stop offset="1" stop-color="#1F2235" stop-opacity="0"/></linearGradient><linearGradient id="r" x1="206.444" y1="13.52" x2="202.262" y2="29.127" gradientUnits="userSpaceOnUse"><stop offset=".148" stop-color="#474B61"/><stop offset="1" stop-color="#1F2235" stop-opacity="0"/></linearGradient><linearGradient id="s" x1="54.089" y1=".7" x2="57.462" y2="13.289" gradientUnits="userSpaceOnUse"><stop offset=".148" stop-color="#474B61"/><stop offset="1" stop-color="#1F2235" stop-opacity="0"/></linearGradient><linearGradient id="t" x1="54.089" y1=".7" x2="57.462" y2="13.289" gradientUnits="userSpaceOnUse"><stop offset=".148" stop-color="#474B61"/><stop offset="1" stop-color="#1F2235" stop-opacity="0"/></linearGradient><linearGradient id="u" x1="54.089" y1=".7" x2="57.462" y2="13.289" gradientUnits="userSpaceOnUse"><stop offset=".148" stop-color="#474B61"/><stop offset="1" stop-color="#1F2235" stop-opacity="0"/></linearGradient><clipPath id="a"><rect width="329" height="89" rx="15" fill="#fff"/></clipPath><clipPath id="h"><path fill="#fff" transform="translate(89.563 -14.87)" d="M0 0h18.59v18.595H0z"/></clipPath><clipPath id="j"><path fill="#fff" transform="rotate(45 26.774 322.157)" d="M0 0h15.043v15.047H0z"/></clipPath><clipPath id="m"><path fill="#fff" transform="rotate(45 -.447 112.29)" d="M0 0h17.922v17.926H0z"/></clipPath></defs></svg>