<svg width="31" height="31" fill="none" xmlns="http://www.w3.org/2000/svg"><path fill-rule="evenodd" clip-rule="evenodd" d="m24.219 14.208-.008.315.008.331-.008.317.008.33-.244 10.66a2.644 2.644 0 0 1-2.358 2.568c-4.066.44-8.168.44-12.234 0a2.644 2.644 0 0 1-2.358-2.569L6.78 15.5l.008-.332-.008-.314.008-.33-.008-.316.218-8.578c.001-.057.004-.113.008-.17l.014-.596A2.712 2.712 0 0 1 9.455 2.23l.339-.033c.153-.036.31-.062.471-.078a54.021 54.021 0 0 1 10.47 0c.16.016.317.042.47.078.114.01.227.022.34.033a2.712 2.712 0 0 1 2.434 2.633l.014.598c.004.056.007.112.008.168l.218 8.578Zm-3.552 8.72a.969.969 0 0 0 0-1.938H10.333a.969.969 0 1 0 0 1.937h10.334Zm-5.167 5.1a1.938 1.938 0 1 0 0-3.875 1.938 1.938 0 0 0 0 3.875Z" fill="#0079F0"/></svg>